<svg xmlns="http://www.w3.org/2000/svg" viewBox="0 0 1080 1080"><defs><style>.cls-1{fill:#fff;}</style></defs><g id="_Camada_2" data-name="&lt;Camada&gt;"><path class="cls-1" d="M781.36,105.52H298.64C192,105.52,105.52,192,105.52,298.64V781.36C105.52,888,192,974.48,298.64,974.48H781.36C888,974.48,974.48,888,974.48,781.36V298.64C974.48,192,888,105.52,781.36,105.52Zm80.45,575.32a181,181,0,0,1-181,181H399.16a181,181,0,0,1-181-181V399.16a181,181,0,0,1,181-181H680.84a181,181,0,0,1,181,181Z"/><circle class="cls-1" cx="540" cy="540" r="107.74" transform="translate(-79.53 93.47) rotate(-9.22)"/><path class="cls-1" d="M803.54,400c-2.11-44.89-20.86-73.14-32.74-85-39.61-40.66-85-40.66-230.8-40.66s-191.19,0-230.8,40.66c-11.88,11.89-30.63,40.14-32.74,85s-3.17,121.48-2.64,140c-.53,18.48.53,95.06,2.64,140s20.86,73.14,32.74,85c39.61,40.66,85,40.66,230.8,40.66s191.19,0,230.8-40.66c11.88-11.89,30.63-40.14,32.74-85s3.17-121.48,2.64-140C806.71,521.52,805.65,444.94,803.54,400ZM540,706.19A166.19,166.19,0,1,1,706.19,540,166.2,166.2,0,0,1,540,706.19ZM711.12,405.85a38.73,38.73,0,1,1,38.73-38.73A38.73,38.73,0,0,1,711.12,405.85Z"/></g></svg>