<svg xmlns="http://www.w3.org/2000/svg" xmlns:xlink="http://www.w3.org/1999/xlink" viewBox="0 0 1080 1080"><defs><style>.cls-1{fill:url(#radial-gradient);}.cls-2{fill:#fff;}.cls-3{fill:url(#radial-gradient-2);}.cls-4{fill:url(#linear-gradient);}</style><radialGradient id="radial-gradient" cx="-2453.03" cy="1432.63" r="2092.42" gradientTransform="translate(1417.89 189.91) scale(0.49)" gradientUnits="userSpaceOnUse"><stop offset="0" stop-color="#fec053"/><stop offset="0.47" stop-color="#f2203e"/><stop offset="0.71" stop-color="#b71fa8"/><stop offset="1" stop-color="#5351d6"/></radialGradient><radialGradient id="radial-gradient-2" cx="-2240.13" cy="1151.65" r="1304.98" xlink:href="#radial-gradient"/><linearGradient id="linear-gradient" x1="463.82" y1="616.18" x2="616.18" y2="463.82" gradientUnits="userSpaceOnUse"><stop offset="0" stop-color="#fe7553"/><stop offset="0.48" stop-color="#f2203e"/><stop offset="1" stop-color="#b71fa8"/></linearGradient></defs><g id="_Camada_2" data-name="&lt;Camada&gt;"><rect class="cls-1" x="105.52" y="105.52" width="868.96" height="868.96" rx="193.12"/><path class="cls-2" d="M399.16,218.19H680.84a181,181,0,0,1,181,181V680.83a181,181,0,0,1-181,181H399.16a181,181,0,0,1-181-181V399.16a181,181,0,0,1,181-181Z"/><path class="cls-3" d="M803.54,400c-2.11-44.89-20.86-73.14-32.74-85-39.62-40.66-85-40.66-230.8-40.66s-191.19,0-230.8,40.66c-11.88,11.89-30.63,40.14-32.74,85s-3.17,121.47-2.64,140c-.53,18.48.53,95.06,2.64,140s20.86,73.14,32.74,85c39.61,40.66,85,40.66,230.8,40.66s191.18,0,230.8-40.66c11.88-11.89,30.63-40.14,32.74-85s3.17-121.48,2.64-140C806.71,521.51,805.65,444.94,803.54,400Z"/><circle class="cls-2" cx="540" cy="540" r="166.19" transform="translate(-79.53 986.53) rotate(-80.78)"/><circle class="cls-4" cx="540" cy="540" r="107.74"/><path class="cls-2" d="M749.85,367.12a38.73,38.73,0,1,1-38.73-38.73A38.73,38.73,0,0,1,749.85,367.12Z"/></g></svg>