<svg xmlns="http://www.w3.org/2000/svg" viewBox="0 0 1080 1080"><defs><style>.cls-1{fill:#1f1f1f;}.cls-2{fill:#fff;}</style></defs><g id="_Camada_2" data-name="&lt;Camada&gt;"><circle class="cls-1" cx="540" cy="540" r="469.24"/><rect class="cls-2" x="218.19" y="218.19" width="643.63" height="643.62" rx="180.97"/><path class="cls-1" d="M803.54,400c-2.11-44.89-20.86-73.14-32.74-85-39.61-40.66-85-40.66-230.8-40.66s-191.19,0-230.8,40.66c-11.88,11.89-30.63,40.14-32.74,85s-3.17,121.48-2.64,140c-.53,18.49.53,95.06,2.64,140s20.86,73.14,32.74,85c39.61,40.66,85,40.66,230.8,40.66s191.19,0,230.8-40.66c11.88-11.89,30.63-40.14,32.74-85s3.17-121.47,2.64-140C806.71,521.52,805.65,444.94,803.54,400Z"/><circle class="cls-2" cx="540" cy="540" r="166.19"/><circle class="cls-1" cx="540" cy="540" r="107.74" transform="translate(-165.54 247.75) rotate(-22.5)"/><path class="cls-2" d="M749.85,367.12a38.73,38.73,0,1,1-38.73-38.73A38.73,38.73,0,0,1,749.85,367.12Z"/></g></svg>